name C:\Users\u0101727\Documents\MyRepositories\upper-imu-dc\Results\main_tracking\Case_69\kinematics.mot
datacolumns 10
datarows 23
range 2.00000000 2.22000000
endheader 
time	clav_prot	clav_elev	scapula_abduction	scapula_elevation	scapula_upward_rot	scapula_winging	plane_elv	shoulder_elv	axial_rot	
          2.00000000	        -25.00248112	          4.10536351	          9.67440798	         -4.63894383	         52.11008783	         -4.98635434	         61.12760470	         71.00529111	        -20.73081243	
          2.01000000	        -25.17887789	          4.19813266	          9.66017148	         -4.60797533	         52.49626017	         -5.05631277	         60.91460214	         71.31799584	        -20.55449530	
          2.02000000	        -25.35363406	          4.28382773	          9.64426342	         -4.58062483	         52.87446378	         -5.12329252	         60.69975622	         71.63006210	        -20.36533955	
          2.03000000	        -25.52654270	          4.36254438	          9.62728417	         -4.55687359	         53.24503964	         -5.18738244	         60.48364984	         71.94134966	        -20.16519718	
          2.04000000	        -25.69745373	          4.43447716	          9.60980948	         -4.53663985	         53.60844684	         -5.24870069	         60.26679378	         72.25166997	        -19.95621928	
          2.05000000	        -25.86627413	          4.49991276	          9.59238084	         -4.51978206	         53.96524916	         -5.30739193	         60.04961977	         72.56078752	        -19.74077902	
          2.06000000	        -26.03296509	          4.55921688	          9.57549705	         -4.50610618	         54.31609524	         -5.36362254	         59.83247752	         72.86842859	        -19.52137528	
          2.07000000	        -26.19753758	          4.61281733	          9.55960431	         -4.49537541	         54.66169222	         -5.41757450	         59.61563848	         73.17429793	        -19.30051657	
          2.08000000	        -26.36004749	          4.66118673	          9.54508277	         -4.48732031	         55.00277430	         -5.46943926	         59.39930689	         73.47810129	        -19.08058915	
          2.09000000	        -26.52059149	          4.70482769	          9.53222946	         -4.48164742	         55.34006949	         -5.51941250	         59.18363576	         73.77957050	        -18.86371840	
          2.10000000	        -26.67930451	          4.74426253	          9.52123952	         -4.47804534	         55.67426891	         -5.56769100	         58.96874432	         74.07848655	        -18.65163731	
          2.11000000	        -26.83635835	          4.78002889	          9.51218939	         -4.47618724	         56.00600264	         -5.61447182	         58.75473233	         74.37469628	        -18.44557872	
          2.12000000	        -26.99196044	          4.81268165	          9.50502630	         -4.47572964	         56.33582533	         -5.65995422	         58.54168772	         74.66812004	        -18.24620844	
          2.13000000	        -27.14635116	          4.84280034	          9.49956770	         -4.47630775	         56.66421196	         -5.70434337	         58.32968534	         74.95874953	        -18.05361278	
          2.14000000	        -27.29979818	          4.87099834	          9.49551223	         -4.47752965	         56.99156166	         -5.74785457	         58.11877636	         75.24663829	        -17.86734557	
          2.15000000	        -27.45258679	          4.89792785	          9.49246213	         -4.47897323	         57.31820533	         -5.79071559	         57.90897006	         75.53188904	        -17.68652703	
          2.16000000	        -27.60500703	          4.92427566	          9.48995382	         -4.48018921	         57.64441358	         -5.83316552	         57.70021181	         75.81464107	        -17.50997404	
          2.17000000	        -27.75733944	          4.95074775	          9.48749224	         -4.48071169	         57.97040300	         -5.87544957	         57.49236278	         76.09505945	        -17.33633602	
          2.18000000	        -27.90984180	          4.97804631	          9.48458396	         -4.48007393	         58.29634098	         -5.91781118	         57.28518674	         76.37332551	        -17.16421664	
          2.19000000	        -28.06273913	          5.00684462	          9.48076442	         -4.47782569	         58.62235016	         -5.96048339	         57.07834823	         76.64962748	        -16.99227305	
          2.20000000	        -28.21621816	          5.03776561	          9.47561708	         -4.47354825	         58.94851349	         -6.00368150	         56.87142342	         76.92415030	        -16.81929393	
          2.21000000	        -28.37042565	          5.07136717	          9.46878378	         -4.46686491	         59.27487934	         -6.04759789	         56.66392246	         77.19706526	        -16.64426040	
          2.22000000	        -28.52547010	          5.10813475	          9.45996582	         -4.45744653	         59.60146458	         -6.09239934	         56.45532059	         77.46852136	        -16.46639141	
